<svg xmlns="http://www.w3.org/2000/svg" preserveAspectRatio="none" viewBox="0 0 960 540"><rect x="0" y="0" width="960" height="540" fill="#1a1b1c"></rect><g transform="translate(993.2477260420812 507.9333904091539)"><path d="M201.7 -339.8C266.4 -272.2 327.4 -224.8 364.4 -161.3C401.5 -97.8 414.5 -18.1 415.9 68.7C417.3 155.6 407 249.7 370.6 358.2C334.2 466.7 271.7 589.5 192.5 576.8C113.3 564 17.4 415.6 -71 343.2C-159.4 270.9 -240.3 274.6 -273.1 236.7C-305.9 198.7 -290.5 119.1 -335.1 28C-379.6 -63.2 -484.1 -166 -482.5 -241.6C-481 -317.1 -373.5 -365.5 -275.4 -417.9C-177.3 -470.3 -88.7 -526.6 -10.1 -510.9C68.5 -495.2 137 -407.5 201.7 -339.8" fill="none" stroke="#cd8c12" stroke-width="6"></path></g></svg>